<svg version="1.1" id="Layer_1" xmlns="http://www.w3.org/2000/svg" xmlns:xlink="http://www.w3.org/1999/xlink" x="0px" y="0px"
	 width="100%" viewBox="0 0 448 400" enable-background="new 0 0 448 400" xml:space="preserve">
<path fill="#000000" opacity="1.000000" stroke="none" 
	d="
M68.833092,276.041260 
	C55.605221,245.391647 51.992676,214.102890 57.319111,181.423996 
	C63.312511,144.653107 80.096054,113.810043 106.504089,88.095825 
	C134.788605,60.554420 168.908981,45.724182 208.301926,42.529938 
	C280.214233,36.698811 348.691406,79.278831 376.243774,142.716980 
	C395.483337,187.015198 395.471588,231.934113 375.924713,276.080963 
	C352.886047,328.114227 312.616852,359.504761 257.259674,372.259155 
	C194.929688,386.620087 122.007568,361.685669 86.031136,306.297089 
	C79.753510,296.632202 73.742043,286.885101 68.833092,276.041260 
M239.646133,135.146561 
	C234.104782,140.679123 228.521576,146.170547 223.032730,151.754715 
	C216.290924,158.613617 212.883850,167.123260 212.670181,176.521088 
	C212.539139,182.285141 212.929489,188.427399 216.912949,193.533707 
	C220.041534,191.922806 221.793549,189.429825 223.947159,187.403366 
	C236.664505,175.437042 246.921249,161.125122 260.031067,149.533051 
	C266.866486,143.488998 272.082672,135.600220 280.410431,131.271225 
	C289.380890,126.608109 300.175690,129.130234 305.873810,137.006210 
	C311.925842,145.371368 310.813721,154.065155 302.824615,162.009567 
	C284.516541,180.215256 266.241852,198.454651 248.003922,216.730545 
	C246.803360,217.933609 244.923798,218.881958 245.185852,221.073853 
	C255.512131,227.024200 270.744812,225.798050 280.828064,217.405518 
	C295.953552,204.816223 309.395386,190.403549 323.115753,176.350891 
	C339.196777,159.880402 339.796814,136.579361 325.362457,118.700287 
	C309.366577,98.887047 279.527863,96.491089 262.734894,112.720665 
	C255.189484,120.012901 247.675446,127.337593 239.646133,135.146561 
M140.935333,271.665100 
	C159.954010,250.763596 180.551666,231.393066 200.269760,211.191818 
	C198.615952,208.586731 196.236282,207.990097 194.059128,207.577332 
	C182.928589,205.467163 172.382797,206.793930 163.514862,214.434067 
	C149.252914,226.721375 135.848984,239.956650 123.005455,253.683014 
	C110.548958,266.995758 108.363739,282.572906 115.227081,299.537018 
	C125.835381,325.757538 161.581375,336.387604 182.300217,318.522278 
	C197.151810,305.716095 210.678864,291.348755 223.856323,276.781860 
	C232.673615,267.034851 232.250702,255.193878 229.431366,243.265289 
	C229.035660,241.591080 228.344528,239.733505 226.296341,238.987213 
	C224.275742,239.875137 222.843796,241.501770 221.228439,242.921356 
	C215.880280,247.621384 212.378799,254.071838 207.656799,258.937408 
	C195.740906,271.215698 183.180603,282.938538 170.930206,294.939972 
	C163.732025,301.991821 154.167465,302.668427 146.357483,297.061920 
	C138.190399,291.199036 135.928268,281.621490 140.935333,271.665100 
M186.073944,71.558868 
	C92.033127,97.792969 64.722282,194.753479 88.554184,253.910736 
	C90.414627,249.877670 91.833954,245.494644 94.304489,241.818008 
	C96.704285,238.246628 96.814667,235.010635 96.019295,231.020737 
	C91.437325,208.035736 94.048187,185.582535 102.116371,163.771866 
	C122.562378,108.500320 181.358871,72.421318 241.727493,83.101929 
	C252.854736,85.070595 262.380737,80.620628 272.501129,77.991402 
	C244.619781,66.337685 216.068314,64.659706 186.073944,71.558868 
M357.755951,251.392227 
	C365.726135,224.402512 367.144989,197.443405 357.789307,170.442352 
	C355.330292,173.531815 353.792419,176.922348 351.132477,179.438019 
	C349.193573,181.271729 348.867157,183.214325 349.308807,185.713547 
	C353.149078,207.446960 351.415314,228.663910 344.396667,249.678009 
	C333.711395,281.670013 312.804596,304.890625 283.875244,321.106506 
	C266.973053,330.580811 248.460648,335.824799 229.064911,336.545959 
	C219.938660,336.885315 217.116196,343.982880 211.043457,348.890045 
	C258.461700,354.654755 332.115021,328.927582 357.755951,251.392227 
M238.237244,211.737717 
	C242.748459,207.070496 247.269318,202.412537 251.764725,197.730133 
	C253.034241,196.407806 254.753067,194.862274 252.789978,193.105911 
	C249.256912,189.944855 246.411407,185.961700 242.279068,183.616226 
	C227.871979,197.916260 213.697815,211.959641 199.553696,226.033203 
	C190.344543,235.196411 190.459564,235.120560 199.553253,244.206802 
	C202.124054,246.775497 203.654480,246.475983 206.012909,244.074326 
	C216.508987,233.385956 227.157013,222.846802 238.237244,211.737717 
z"/>
</svg>