<svg version="1.1" id="Layer_1" xmlns="http://www.w3.org/2000/svg" xmlns:xlink="http://www.w3.org/1999/xlink" x="0px" y="0px"
	 width="100%" viewBox="0 0 4167 994" enable-background="new 0 0 4167 994" xml:space="preserve">
<path fill="#FFFFFF" opacity="1.000000" stroke="none" 
	d="
M2768.000000,995.000000 
	C1845.333374,995.000000 923.166687,995.000000 1.000000,995.000000 
	C1.000000,663.666687 1.000000,332.333344 1.000000,1.000000 
	C1390.000000,1.000000 2779.000000,1.000000 4168.000000,1.000000 
	C4168.000000,332.333344 4168.000000,663.666687 4168.000000,995.000000 
	C3701.500000,995.000000 3235.000000,995.000000 2768.000000,995.000000 
M1304.500000,928.000000 
	C1478.584351,928.000000 1652.668701,928.000000 1826.726318,928.000000 
	C1826.726318,875.050720 1826.726318,822.647949 1826.726318,770.096191 
	C1698.154907,770.096191 1569.856812,770.096191 1440.992676,770.096191 
	C1443.904785,765.247375 1446.474731,760.669067 1449.324341,756.271790 
	C1469.119141,725.725281 1488.991943,695.229431 1508.799561,664.691162 
	C1524.658936,640.239868 1540.436523,615.735535 1556.295044,591.283875 
	C1576.101929,560.744751 1595.977905,530.250488 1615.780029,499.708374 
	C1631.022461,476.198792 1646.176514,452.631927 1661.407837,429.115112 
	C1677.429688,404.377991 1693.503174,379.674438 1709.541748,354.948151 
	C1725.490601,330.359772 1741.373657,305.728516 1757.377563,281.175995 
	C1776.290039,252.160904 1795.363525,223.250565 1814.184937,194.176651 
	C1816.382935,190.781448 1818.754883,186.649933 1818.792603,182.837372 
	C1819.143799,147.509949 1819.003174,112.177605 1818.987183,76.846710 
	C1818.986694,75.589195 1818.797974,74.331772 1818.717773,73.332809 
	C1616.251587,73.332809 1414.189453,73.332809 1212.333374,73.332809 
	C1212.333374,126.735855 1212.333374,179.805664 1212.333374,233.044373 
	C1341.270142,233.044373 1469.873535,233.044373 1598.842163,233.044373 
	C1598.220825,234.294846 1597.830933,235.328796 1597.240234,236.231247 
	C1588.328857,249.846878 1579.412842,263.459564 1570.454834,277.044495 
	C1550.408447,307.446075 1530.326050,337.824005 1510.280518,368.226166 
	C1490.324463,398.492371 1470.407227,428.784119 1450.450928,459.050293 
	C1430.405273,489.452393 1410.321167,519.829163 1390.275391,550.231201 
	C1370.319336,580.497437 1350.424683,610.804382 1330.439087,641.051208 
	C1310.805054,670.766296 1291.048828,700.400757 1271.423706,730.121765 
	C1253.492188,757.278015 1235.640015,784.486938 1217.851196,811.736816 
	C1216.787354,813.366577 1216.082153,815.564941 1216.076416,817.501282 
	C1215.971802,852.831909 1215.997437,888.162903 1216.009644,923.493835 
	C1216.010254,924.930115 1216.152100,926.366333 1216.238647,928.000000 
	C1245.548584,928.000000 1274.524292,928.000000 1304.500000,928.000000 
M1976.036133,737.326965 
	C1983.198608,752.225769 1989.872559,767.384949 1997.641113,781.960754 
	C2008.598511,802.519653 2022.556396,821.099609 2038.623291,837.931702 
	C2047.498657,847.229553 2057.225830,855.743042 2066.861572,864.279541 
	C2081.083496,876.878845 2097.120605,886.953613 2113.791016,895.884399 
	C2133.488037,906.436584 2154.141846,915.014954 2175.710205,920.842407 
	C2192.321289,925.330566 2209.267334,928.681213 2226.183105,931.915894 
	C2247.632080,936.017456 2269.397705,936.373962 2291.163330,935.970703 
	C2299.417969,935.817749 2307.681885,935.545227 2315.914062,934.947693 
	C2326.843262,934.154480 2337.947754,933.969055 2348.614502,931.767090 
	C2367.007568,927.970215 2385.327637,923.501221 2403.296631,918.054810 
	C2423.105713,912.050842 2442.010498,903.617126 2460.160889,893.481201 
	C2477.651611,883.713318 2493.889648,872.215454 2508.571533,858.715942 
	C2521.534912,846.796509 2533.794678,834.114868 2544.088867,819.649658 
	C2546.162354,816.735779 2546.030762,815.589905 2543.798340,813.164185 
	C2536.243652,804.955383 2528.917236,796.533081 2521.618652,788.092834 
	C2511.664307,776.581238 2501.793701,764.996704 2491.930176,753.406860 
	C2486.744141,747.313049 2481.725098,741.076172 2476.493164,735.022827 
	C2471.121826,728.808411 2465.684082,722.642090 2460.005859,716.712585 
	C2459.177490,715.847534 2456.133545,715.664185 2455.331787,716.433594 
	C2446.266602,725.133972 2437.869385,734.570801 2428.452393,742.854858 
	C2412.170898,757.177734 2392.807617,766.399353 2372.672119,773.943909 
	C2353.603027,781.088928 2333.645508,784.534546 2313.447754,785.847839 
	C2295.045410,787.044556 2276.475342,786.581116 2258.574707,781.691650 
	C2230.429443,774.003906 2204.971924,761.456543 2185.242920,738.914185 
	C2175.674805,727.981873 2167.451660,716.274109 2160.871094,703.406555 
	C2152.618896,687.269836 2146.981689,670.240601 2144.375244,651.915527 
	C2283.456543,651.915527 2422.546631,651.915527 2561.001709,651.915527 
	C2561.001709,614.028687 2561.457520,576.481873 2560.772949,538.955811 
	C2560.506592,524.355408 2558.488525,509.648285 2555.794922,495.265717 
	C2552.424072,477.266571 2548.267090,459.337311 2543.119629,441.767578 
	C2536.486572,419.127960 2527.969482,397.160339 2515.509277,376.867767 
	C2506.131592,361.595398 2495.908936,346.943115 2483.415039,334.165405 
	C2472.954834,323.467865 2461.612305,313.587311 2450.228516,303.849976 
	C2434.665039,290.537384 2416.681641,281.004272 2397.932861,273.134430 
	C2378.688965,265.056793 2359.010010,257.944031 2338.256836,254.738922 
	C2321.550049,252.158722 2304.795898,249.001022 2287.969482,248.285721 
	C2262.616943,247.207993 2237.106201,247.000259 2212.003906,252.057297 
	C2197.491699,254.980881 2182.928467,257.891022 2168.693604,261.893188 
	C2149.366943,267.326965 2131.075195,275.441772 2113.260254,284.835907 
	C2093.501709,295.255035 2075.238281,307.787872 2058.989014,322.876617 
	C2046.825562,334.171448 2035.706055,346.736847 2025.140015,359.574738 
	C2004.262085,384.942108 1990.050049,414.117279 1979.007324,444.885132 
	C1969.573364,471.170135 1962.081543,497.968384 1959.009033,525.824463 
	C1957.504028,539.469971 1956.124634,553.136292 1955.086792,566.823364 
	C1954.584229,573.451233 1954.969849,580.148987 1955.005127,586.814819 
	C1955.169434,617.801270 1953.563477,648.856506 1959.934814,679.546387 
	C1963.960205,698.935303 1968.789185,718.052307 1976.036133,737.326965 
M3070.974854,427.466675 
	C3094.680176,434.827881 3113.193359,449.257416 3127.658936,469.167542 
	C3138.655518,484.303314 3145.899658,501.214081 3150.964844,519.111023 
	C3156.341309,538.107605 3159.758301,557.589539 3159.821777,577.229065 
	C3160.187744,690.210266 3160.000000,803.193176 3160.000000,916.175537 
	C3160.000000,918.090210 3160.000000,920.004883 3160.000000,921.654358 
	C3218.101318,921.654358 3275.500977,921.654358 3333.000000,921.654358 
	C3333.000000,919.481934 3333.000000,917.654968 3333.000000,915.827942 
	C3333.000000,814.343811 3333.038330,712.859619 3332.955566,611.375610 
	C3332.944092,597.291687 3332.491699,583.202209 3331.946777,569.126770 
	C3331.552734,558.948425 3331.088623,548.739441 3329.897705,538.633484 
	C3328.284424,524.945862 3326.788086,511.152893 3323.749023,497.743408 
	C3316.727783,466.765930 3306.021484,437.026917 3289.842041,409.549072 
	C3274.275879,383.113037 3255.175781,359.629303 3231.518066,339.789886 
	C3215.426514,326.295715 3198.191895,314.619720 3179.508545,305.367218 
	C3154.106201,292.787201 3127.514160,283.216980 3099.287354,279.019531 
	C3084.495605,276.819916 3069.690430,273.793091 3054.816162,273.267426 
	C3029.288330,272.365173 3003.620117,271.874054 2978.346924,277.037109 
	C2963.365967,280.097565 2948.305664,282.968048 2933.569092,286.980835 
	C2912.921631,292.603180 2893.431885,301.177856 2874.654053,311.592438 
	C2855.085938,322.445587 2837.068115,335.384155 2821.036377,350.791748 
	C2810.305908,361.104492 2800.654541,372.656036 2791.360840,384.322784 
	C2774.085938,406.009094 2761.736816,430.554779 2752.044678,456.424316 
	C2741.223145,485.307587 2735.068115,515.312256 2732.116699,545.933167 
	C2730.773193,559.870422 2730.112061,573.926025 2730.088867,587.929443 
	C2729.922607,688.413513 2730.000488,788.897888 2729.994141,889.382202 
	C2729.993896,891.039429 2729.868896,892.696655 2729.866699,894.353943 
	C2729.853760,903.860779 2729.860352,913.367615 2729.860352,922.668457 
	C2786.406494,922.668457 2843.139160,922.668457 2900.000000,922.668457 
	C2900.000000,920.514160 2900.000000,918.690979 2900.000000,916.867798 
	C2900.000000,814.550476 2899.963135,712.233093 2900.044189,609.915833 
	C2900.055176,596.332520 2900.258789,582.723511 2901.131104,569.175171 
	C2901.809082,558.646423 2903.274170,548.124817 2905.092285,537.722961 
	C2907.953125,521.358521 2913.216797,505.636108 2920.759521,490.864441 
	C2928.937500,474.849091 2939.412354,460.581726 2953.439941,448.838348 
	C2972.460693,432.914978 2994.490723,424.519867 3018.654785,422.247406 
	C3035.944580,420.621429 3053.420166,421.597351 3070.974854,427.466675 
M3652.633789,305.032928 
	C3637.151611,313.693451 3621.948975,322.665314 3607.726074,333.456635 
	C3589.534912,347.258728 3573.516602,363.135223 3559.669922,381.051483 
	C3540.369141,406.025146 3525.301025,433.553101 3515.883545,463.753357 
	C3510.679199,480.442688 3506.484863,497.536560 3503.202637,514.709412 
	C3500.183105,530.507263 3497.796387,546.614197 3497.248535,562.657288 
	C3496.096436,596.378418 3496.100830,630.146606 3496.045654,663.896118 
	C3495.907471,748.720581 3496.000000,833.545410 3496.000000,918.370056 
	C3496.000000,919.813232 3496.000000,921.256409 3496.000000,922.758667 
	C3552.887207,922.758667 3609.288330,922.758667 3666.000000,922.758667 
	C3666.000000,920.721985 3666.000000,918.922485 3666.000000,917.123047 
	C3666.000000,826.132324 3665.855713,735.141296 3666.085938,644.151184 
	C3666.156982,616.148682 3664.161377,588.051208 3668.091797,560.163574 
	C3669.893311,547.380676 3671.789307,534.491516 3675.202637,522.079651 
	C3682.871826,494.194550 3695.894043,469.285339 3718.367920,450.051300 
	C3737.952393,433.290497 3760.727539,424.112976 3786.113770,422.192108 
	C3805.896484,420.695221 3825.600098,422.139282 3844.364746,429.950592 
	C3863.035156,437.722778 3878.712402,449.154785 3891.099609,465.303223 
	C3903.439209,481.389160 3911.540283,499.370422 3917.029541,518.721436 
	C3922.330566,537.407898 3925.832275,556.475159 3925.875488,575.841309 
	C3926.129395,689.329102 3926.000000,802.817810 3926.000000,916.306213 
	C3926.000000,918.089172 3926.000000,919.872131 3926.000000,921.781494 
	C3983.841797,921.781494 4041.242676,921.781494 4099.000000,921.781494 
	C4099.000000,919.774719 4099.000000,917.980957 4099.000000,916.187195 
	C4099.000000,807.698303 4099.024902,699.209351 4098.956543,590.720459 
	C4098.950684,581.302063 4098.640625,571.860779 4097.927734,562.471375 
	C4096.876465,548.620483 4096.119629,534.673340 4093.798584,521.011597 
	C4091.025879,504.691315 4087.325195,488.467926 4082.962646,472.492950 
	C4076.725098,449.649811 4067.076660,428.150177 4055.010742,407.729156 
	C4044.209229,389.447815 4031.709717,372.412964 4016.705078,357.450806 
	C4007.093506,347.866638 3996.596924,339.095703 3985.970947,330.620300 
	C3968.372070,316.583405 3948.781250,305.642883 3928.011719,297.160919 
	C3906.117432,288.219574 3883.606445,280.913696 3859.968994,278.013672 
	C3844.586426,276.126434 3829.186035,273.934723 3813.731445,273.211945 
	C3799.527344,272.547668 3785.233643,273.501007 3770.991943,274.064514 
	C3762.979492,274.381561 3754.880859,274.735504 3747.019043,276.163666 
	C3733.238770,278.667023 3719.525391,281.668030 3705.940674,285.084229 
	C3687.693848,289.672821 3670.267090,296.619019 3652.633789,305.032928 
M459.009979,301.486176 
	C448.999451,317.831818 438.983246,334.173981 428.979675,350.523865 
	C414.960541,373.436768 400.931488,396.343597 386.942291,419.274811 
	C371.927032,443.888000 356.982544,468.544403 341.951996,493.148254 
	C328.544342,515.095520 315.035309,536.980835 301.618958,558.922791 
	C287.691864,581.700012 273.817261,604.509338 259.929077,627.310364 
	C244.930756,651.933899 229.961258,676.575134 214.945480,701.188049 
	C203.000198,720.767944 191.002823,740.316040 179.031067,759.879822 
	C167.059738,779.442932 155.084305,799.003662 143.124084,818.573547 
	C132.191391,836.462158 121.271080,854.358337 110.355644,872.257446 
	C101.060181,887.500122 91.547173,902.616760 82.574638,918.047424 
	C76.684769,928.176636 81.578194,935.999634 93.221870,935.999756 
	C152.711212,936.000305 212.200546,935.992737 271.689880,936.006531 
	C282.588226,936.009094 291.073181,931.417603 297.007233,922.405945 
	C301.327423,915.845215 305.222046,909.004333 309.308441,902.289612 
	C323.872040,878.359253 338.437012,854.429688 353.000488,830.499268 
	C366.368591,808.532898 379.733002,786.564392 393.103546,764.599487 
	C408.777954,738.849976 424.462708,713.106750 440.132568,687.354431 
	C453.499878,665.386108 466.851196,643.408081 480.211792,621.435730 
	C494.766937,597.498901 509.317108,573.559082 523.883667,549.629150 
	C537.340088,527.523071 550.821167,505.431976 564.280518,483.327606 
	C578.849854,459.400330 593.403320,435.463409 607.969604,411.534332 
	C621.426697,389.427551 634.892883,367.326355 648.352844,345.221375 
	C662.921936,321.294922 677.491882,297.369049 692.054932,273.438934 
	C705.423157,251.472183 718.774170,229.494949 732.148315,207.531738 
	C746.803833,183.464188 761.508057,159.426254 776.129944,135.338287 
	C783.695862,122.874237 791.265137,110.407478 798.506592,97.755257 
	C799.929749,95.268738 800.637329,91.843010 800.335876,88.992065 
	C799.125061,77.541718 790.655762,74.108864 782.258179,74.084740 
	C725.768799,73.922447 669.278259,73.885880 612.789246,74.110977 
	C603.197327,74.149200 595.154907,77.782822 589.890991,86.907593 
	C581.463989,101.515480 572.287842,115.690056 563.483765,130.081680 
	C550.404114,151.462418 537.378784,172.876328 524.319275,194.269333 
	C510.749573,216.498093 497.135986,238.700104 483.601257,260.950104 
	C475.513000,274.246582 467.539276,287.612732 459.009979,301.486176 
M588.507019,785.032471 
	C582.742432,794.179321 576.931702,803.297485 571.221497,812.478149 
	C550.550110,845.713013 529.943420,878.988159 509.230621,912.197205 
	C505.919342,917.506226 506.125763,922.788452 508.645813,928.114990 
	C511.240540,933.599304 515.994568,935.972595 521.862671,935.976440 
	C580.676758,936.015198 639.491089,936.081543 698.304688,935.907349 
	C706.641846,935.882629 713.544495,931.972351 718.042175,924.711792 
	C731.583740,902.851624 744.918945,880.863098 758.531311,859.047363 
	C777.171814,829.173401 796.110596,799.485413 814.708252,769.585083 
	C840.050720,728.841003 865.106079,687.918274 890.446045,647.172607 
	C911.722839,612.960266 933.226562,578.889099 954.639954,544.761719 
	C958.797729,538.135498 959.620422,530.976013 956.304688,524.059570 
	C952.757996,516.661072 945.813477,514.935669 938.022583,514.948853 
	C881.707825,515.044128 825.392700,515.053101 769.078064,514.937256 
	C761.463562,514.921570 755.934753,517.763428 751.920776,524.192200 
	C741.511169,540.864014 730.950500,557.441406 720.483154,574.077332 
	C708.970459,592.374451 697.458008,610.671936 686.011292,629.010376 
	C668.667908,656.795471 651.399597,684.627563 634.065186,712.418335 
	C619.070740,736.457458 604.028503,760.466797 588.507019,785.032471 
z"/>
<path fill="#000000" opacity="1.000000" stroke="none" 
	d="
M1304.000000,928.000000 
	C1274.524292,928.000000 1245.548584,928.000000 1216.238647,928.000000 
	C1216.152100,926.366333 1216.010254,924.930115 1216.009644,923.493835 
	C1215.997437,888.162903 1215.971802,852.831909 1216.076416,817.501282 
	C1216.082153,815.564941 1216.787354,813.366577 1217.851196,811.736816 
	C1235.640015,784.486938 1253.492188,757.278015 1271.423706,730.121765 
	C1291.048828,700.400757 1310.805054,670.766296 1330.439087,641.051208 
	C1350.424683,610.804382 1370.319336,580.497437 1390.275391,550.231201 
	C1410.321167,519.829163 1430.405273,489.452393 1450.450928,459.050293 
	C1470.407227,428.784119 1490.324463,398.492371 1510.280518,368.226166 
	C1530.326050,337.824005 1550.408447,307.446075 1570.454834,277.044495 
	C1579.412842,263.459564 1588.328857,249.846878 1597.240234,236.231247 
	C1597.830933,235.328796 1598.220825,234.294846 1598.842163,233.044373 
	C1469.873535,233.044373 1341.270142,233.044373 1212.333374,233.044373 
	C1212.333374,179.805664 1212.333374,126.735855 1212.333374,73.332809 
	C1414.189453,73.332809 1616.251587,73.332809 1818.717773,73.332809 
	C1818.797974,74.331772 1818.986694,75.589195 1818.987183,76.846710 
	C1819.003174,112.177605 1819.143799,147.509949 1818.792603,182.837372 
	C1818.754883,186.649933 1816.382935,190.781448 1814.184937,194.176651 
	C1795.363525,223.250565 1776.290039,252.160904 1757.377563,281.175995 
	C1741.373657,305.728516 1725.490601,330.359772 1709.541748,354.948151 
	C1693.503174,379.674438 1677.429688,404.377991 1661.407837,429.115112 
	C1646.176514,452.631927 1631.022461,476.198792 1615.780029,499.708374 
	C1595.977905,530.250488 1576.101929,560.744751 1556.295044,591.283875 
	C1540.436523,615.735535 1524.658936,640.239868 1508.799561,664.691162 
	C1488.991943,695.229431 1469.119141,725.725281 1449.324341,756.271790 
	C1446.474731,760.669067 1443.904785,765.247375 1440.992676,770.096191 
	C1569.856812,770.096191 1698.154907,770.096191 1826.726318,770.096191 
	C1826.726318,822.647949 1826.726318,875.050720 1826.726318,928.000000 
	C1652.668701,928.000000 1478.584351,928.000000 1304.000000,928.000000 
z"/>
<path fill="#000000" opacity="1.000000" stroke="none" 
	d="
M1976.018066,736.924133 
	C1968.789185,718.052307 1963.960205,698.935303 1959.934814,679.546387 
	C1953.563477,648.856506 1955.169434,617.801270 1955.005127,586.814819 
	C1954.969849,580.148987 1954.584229,573.451233 1955.086792,566.823364 
	C1956.124634,553.136292 1957.504028,539.469971 1959.009033,525.824463 
	C1962.081543,497.968384 1969.573364,471.170135 1979.007324,444.885132 
	C1990.050049,414.117279 2004.262085,384.942108 2025.140015,359.574738 
	C2035.706055,346.736847 2046.825562,334.171448 2058.989014,322.876617 
	C2075.238281,307.787872 2093.501709,295.255035 2113.260254,284.835907 
	C2131.075195,275.441772 2149.366943,267.326965 2168.693604,261.893188 
	C2182.928467,257.891022 2197.491699,254.980881 2212.003906,252.057297 
	C2237.106201,247.000259 2262.616943,247.207993 2287.969482,248.285721 
	C2304.795898,249.001022 2321.550049,252.158722 2338.256836,254.738922 
	C2359.010010,257.944031 2378.688965,265.056793 2397.932861,273.134430 
	C2416.681641,281.004272 2434.665039,290.537384 2450.228516,303.849976 
	C2461.612305,313.587311 2472.954834,323.467865 2483.415039,334.165405 
	C2495.908936,346.943115 2506.131592,361.595398 2515.509277,376.867767 
	C2527.969482,397.160339 2536.486572,419.127960 2543.119629,441.767578 
	C2548.267090,459.337311 2552.424072,477.266571 2555.794922,495.265717 
	C2558.488525,509.648285 2560.506592,524.355408 2560.772949,538.955811 
	C2561.457520,576.481873 2561.001709,614.028687 2561.001709,651.915527 
	C2422.546631,651.915527 2283.456543,651.915527 2144.375244,651.915527 
	C2146.981689,670.240601 2152.618896,687.269836 2160.871094,703.406555 
	C2167.451660,716.274109 2175.674805,727.981873 2185.242920,738.914185 
	C2204.971924,761.456543 2230.429443,774.003906 2258.574707,781.691650 
	C2276.475342,786.581116 2295.045410,787.044556 2313.447754,785.847839 
	C2333.645508,784.534546 2353.603027,781.088928 2372.672119,773.943909 
	C2392.807617,766.399353 2412.170898,757.177734 2428.452393,742.854858 
	C2437.869385,734.570801 2446.266602,725.133972 2455.331787,716.433594 
	C2456.133545,715.664185 2459.177490,715.847534 2460.005859,716.712585 
	C2465.684082,722.642090 2471.121826,728.808411 2476.493164,735.022827 
	C2481.725098,741.076172 2486.744141,747.313049 2491.930176,753.406860 
	C2501.793701,764.996704 2511.664307,776.581238 2521.618652,788.092834 
	C2528.917236,796.533081 2536.243652,804.955383 2543.798340,813.164185 
	C2546.030762,815.589905 2546.162354,816.735779 2544.088867,819.649658 
	C2533.794678,834.114868 2521.534912,846.796509 2508.571533,858.715942 
	C2493.889648,872.215454 2477.651611,883.713318 2460.160889,893.481201 
	C2442.010498,903.617126 2423.105713,912.050842 2403.296631,918.054810 
	C2385.327637,923.501221 2367.007568,927.970215 2348.614502,931.767090 
	C2337.947754,933.969055 2326.843262,934.154480 2315.914062,934.947693 
	C2307.681885,935.545227 2299.417969,935.817749 2291.163330,935.970703 
	C2269.397705,936.373962 2247.632080,936.017456 2226.183105,931.915894 
	C2209.267334,928.681213 2192.321289,925.330566 2175.710205,920.842407 
	C2154.141846,915.014954 2133.488037,906.436584 2113.791016,895.884399 
	C2097.120605,886.953613 2081.083496,876.878845 2066.861572,864.279541 
	C2057.225830,855.743042 2047.498657,847.229553 2038.623291,837.931702 
	C2022.556396,821.099609 2008.598511,802.519653 1997.641113,781.960754 
	C1989.872559,767.384949 1983.198608,752.225769 1976.018066,736.924133 
M2379.970459,497.901703 
	C2379.163574,493.275513 2378.554932,488.604034 2377.511230,484.031891 
	C2374.681152,471.633148 2370.477295,459.726135 2363.966309,448.735443 
	C2356.583252,436.273102 2347.621338,425.317627 2335.594971,416.847107 
	C2317.762451,404.286926 2297.431641,399.688904 2276.368896,398.154999 
	C2251.739990,396.361389 2228.085938,400.346832 2206.666016,413.736572 
	C2195.720215,420.578735 2186.100342,428.643921 2178.732910,439.495850 
	C2171.016846,450.861053 2164.374023,462.673706 2158.853516,475.269135 
	C2152.396973,489.999939 2148.626465,505.369324 2146.060303,521.105774 
	C2145.172119,526.552856 2147.343506,528.453979 2152.700928,528.017212 
	C2155.027100,527.827576 2157.382568,527.999390 2159.724609,527.999390 
	C2231.535889,528.000183 2303.346924,528.000000 2375.158203,528.000000 
	C2376.740234,528.000000 2378.322021,528.000000 2379.998291,528.000000 
	C2379.998291,517.820923 2379.998291,508.330261 2379.970459,497.901703 
z"/>
<path fill="#000000" opacity="1.000000" stroke="none" 
	d="
M3070.619873,427.250092 
	C3053.420166,421.597351 3035.944580,420.621429 3018.654785,422.247406 
	C2994.490723,424.519867 2972.460693,432.914978 2953.439941,448.838348 
	C2939.412354,460.581726 2928.937500,474.849091 2920.759521,490.864441 
	C2913.216797,505.636108 2907.953125,521.358521 2905.092285,537.722961 
	C2903.274170,548.124817 2901.809082,558.646423 2901.131104,569.175171 
	C2900.258789,582.723511 2900.055176,596.332520 2900.044189,609.915833 
	C2899.963135,712.233093 2900.000000,814.550476 2900.000000,916.867798 
	C2900.000000,918.690979 2900.000000,920.514160 2900.000000,922.668457 
	C2843.139160,922.668457 2786.406494,922.668457 2729.860352,922.668457 
	C2729.860352,913.367615 2729.853760,903.860779 2729.866699,894.353943 
	C2729.868896,892.696655 2729.993896,891.039429 2729.994141,889.382202 
	C2730.000488,788.897888 2729.922607,688.413513 2730.088867,587.929443 
	C2730.112061,573.926025 2730.773193,559.870422 2732.116699,545.933167 
	C2735.068115,515.312256 2741.223145,485.307587 2752.044678,456.424316 
	C2761.736816,430.554779 2774.085938,406.009094 2791.360840,384.322784 
	C2800.654541,372.656036 2810.305908,361.104492 2821.036377,350.791748 
	C2837.068115,335.384155 2855.085938,322.445587 2874.654053,311.592438 
	C2893.431885,301.177856 2912.921631,292.603180 2933.569092,286.980835 
	C2948.305664,282.968048 2963.365967,280.097565 2978.346924,277.037109 
	C3003.620117,271.874054 3029.288330,272.365173 3054.816162,273.267426 
	C3069.690430,273.793091 3084.495605,276.819916 3099.287354,279.019531 
	C3127.514160,283.216980 3154.106201,292.787201 3179.508545,305.367218 
	C3198.191895,314.619720 3215.426514,326.295715 3231.518066,339.789886 
	C3255.175781,359.629303 3274.275879,383.113037 3289.842041,409.549072 
	C3306.021484,437.026917 3316.727783,466.765930 3323.749023,497.743408 
	C3326.788086,511.152893 3328.284424,524.945862 3329.897705,538.633484 
	C3331.088623,548.739441 3331.552734,558.948425 3331.946777,569.126770 
	C3332.491699,583.202209 3332.944092,597.291687 3332.955566,611.375610 
	C3333.038330,712.859619 3333.000000,814.343811 3333.000000,915.827942 
	C3333.000000,917.654968 3333.000000,919.481934 3333.000000,921.654358 
	C3275.500977,921.654358 3218.101318,921.654358 3160.000000,921.654358 
	C3160.000000,920.004883 3160.000000,918.090210 3160.000000,916.175537 
	C3160.000000,803.193176 3160.187744,690.210266 3159.821777,577.229065 
	C3159.758301,557.589539 3156.341309,538.107605 3150.964844,519.111023 
	C3145.899658,501.214081 3138.655518,484.303314 3127.658936,469.167542 
	C3113.193359,449.257416 3094.680176,434.827881 3070.619873,427.250092 
z"/>
<path fill="#000000" opacity="1.000000" stroke="none" 
	d="
M3653.019043,304.997620 
	C3670.267090,296.619019 3687.693848,289.672821 3705.940674,285.084229 
	C3719.525391,281.668030 3733.238770,278.667023 3747.019043,276.163666 
	C3754.880859,274.735504 3762.979492,274.381561 3770.991943,274.064514 
	C3785.233643,273.501007 3799.527344,272.547668 3813.731445,273.211945 
	C3829.186035,273.934723 3844.586426,276.126434 3859.968994,278.013672 
	C3883.606445,280.913696 3906.117432,288.219574 3928.011719,297.160919 
	C3948.781250,305.642883 3968.372070,316.583405 3985.970947,330.620300 
	C3996.596924,339.095703 4007.093506,347.866638 4016.705078,357.450806 
	C4031.709717,372.412964 4044.209229,389.447815 4055.010742,407.729156 
	C4067.076660,428.150177 4076.725098,449.649811 4082.962646,472.492950 
	C4087.325195,488.467926 4091.025879,504.691315 4093.798584,521.011597 
	C4096.119629,534.673340 4096.876465,548.620483 4097.927734,562.471375 
	C4098.640625,571.860779 4098.950684,581.302063 4098.956543,590.720459 
	C4099.024902,699.209351 4099.000000,807.698303 4099.000000,916.187195 
	C4099.000000,917.980957 4099.000000,919.774719 4099.000000,921.781494 
	C4041.242676,921.781494 3983.841797,921.781494 3926.000000,921.781494 
	C3926.000000,919.872131 3926.000000,918.089172 3926.000000,916.306213 
	C3926.000000,802.817810 3926.129395,689.329102 3925.875488,575.841309 
	C3925.832275,556.475159 3922.330566,537.407898 3917.029541,518.721436 
	C3911.540283,499.370422 3903.439209,481.389160 3891.099609,465.303223 
	C3878.712402,449.154785 3863.035156,437.722778 3844.364746,429.950592 
	C3825.600098,422.139282 3805.896484,420.695221 3786.113770,422.192108 
	C3760.727539,424.112976 3737.952393,433.290497 3718.367920,450.051300 
	C3695.894043,469.285339 3682.871826,494.194550 3675.202637,522.079651 
	C3671.789307,534.491516 3669.893311,547.380676 3668.091797,560.163574 
	C3664.161377,588.051208 3666.156982,616.148682 3666.085938,644.151184 
	C3665.855713,735.141296 3666.000000,826.132324 3666.000000,917.123047 
	C3666.000000,918.922485 3666.000000,920.721985 3666.000000,922.758667 
	C3609.288330,922.758667 3552.887207,922.758667 3496.000000,922.758667 
	C3496.000000,921.256409 3496.000000,919.813232 3496.000000,918.370056 
	C3496.000000,833.545410 3495.907471,748.720581 3496.045654,663.896118 
	C3496.100830,630.146606 3496.096436,596.378418 3497.248535,562.657288 
	C3497.796387,546.614197 3500.183105,530.507263 3503.202637,514.709412 
	C3506.484863,497.536560 3510.679199,480.442688 3515.883545,463.753357 
	C3525.301025,433.553101 3540.369141,406.025146 3559.669922,381.051483 
	C3573.516602,363.135223 3589.534912,347.258728 3607.726074,333.456635 
	C3621.948975,322.665314 3637.151611,313.693451 3653.019043,304.997620 
z"/>
<path fill="#3EA8FF" opacity="1.000000" stroke="none" 
	d="
M459.262024,301.216888 
	C467.539276,287.612732 475.513000,274.246582 483.601257,260.950104 
	C497.135986,238.700104 510.749573,216.498093 524.319275,194.269333 
	C537.378784,172.876328 550.404114,151.462418 563.483765,130.081680 
	C572.287842,115.690056 581.463989,101.515480 589.890991,86.907593 
	C595.154907,77.782822 603.197327,74.149200 612.789246,74.110977 
	C669.278259,73.885880 725.768799,73.922447 782.258179,74.084740 
	C790.655762,74.108864 799.125061,77.541718 800.335876,88.992065 
	C800.637329,91.843010 799.929749,95.268738 798.506592,97.755257 
	C791.265137,110.407478 783.695862,122.874237 776.129944,135.338287 
	C761.508057,159.426254 746.803833,183.464188 732.148315,207.531738 
	C718.774170,229.494949 705.423157,251.472183 692.054932,273.438934 
	C677.491882,297.369049 662.921936,321.294922 648.352844,345.221375 
	C634.892883,367.326355 621.426697,389.427551 607.969604,411.534332 
	C593.403320,435.463409 578.849854,459.400330 564.280518,483.327606 
	C550.821167,505.431976 537.340088,527.523071 523.883667,549.629150 
	C509.317108,573.559082 494.766937,597.498901 480.211792,621.435730 
	C466.851196,643.408081 453.499878,665.386108 440.132568,687.354431 
	C424.462708,713.106750 408.777954,738.849976 393.103546,764.599487 
	C379.733002,786.564392 366.368591,808.532898 353.000488,830.499268 
	C338.437012,854.429688 323.872040,878.359253 309.308441,902.289612 
	C305.222046,909.004333 301.327423,915.845215 297.007233,922.405945 
	C291.073181,931.417603 282.588226,936.009094 271.689880,936.006531 
	C212.200546,935.992737 152.711212,936.000305 93.221870,935.999756 
	C81.578194,935.999634 76.684769,928.176636 82.574638,918.047424 
	C91.547173,902.616760 101.060181,887.500122 110.355644,872.257446 
	C121.271080,854.358337 132.191391,836.462158 143.124084,818.573547 
	C155.084305,799.003662 167.059738,779.442932 179.031067,759.879822 
	C191.002823,740.316040 203.000198,720.767944 214.945480,701.188049 
	C229.961258,676.575134 244.930756,651.933899 259.929077,627.310364 
	C273.817261,604.509338 287.691864,581.700012 301.618958,558.922791 
	C315.035309,536.980835 328.544342,515.095520 341.951996,493.148254 
	C356.982544,468.544403 371.927032,443.888000 386.942291,419.274811 
	C400.931488,396.343597 414.960541,373.436768 428.979675,350.523865 
	C438.983246,334.173981 448.999451,317.831818 459.262024,301.216888 
z"/>
<path fill="#3EA8FF" opacity="1.000000" stroke="none" 
	d="
M588.757202,784.760864 
	C604.028503,760.466797 619.070740,736.457458 634.065186,712.418335 
	C651.399597,684.627563 668.667908,656.795471 686.011292,629.010376 
	C697.458008,610.671936 708.970459,592.374451 720.483154,574.077332 
	C730.950500,557.441406 741.511169,540.864014 751.920776,524.192200 
	C755.934753,517.763428 761.463562,514.921570 769.078064,514.937256 
	C825.392700,515.053101 881.707825,515.044128 938.022583,514.948853 
	C945.813477,514.935669 952.757996,516.661072 956.304688,524.059570 
	C959.620422,530.976013 958.797729,538.135498 954.639954,544.761719 
	C933.226562,578.889099 911.722839,612.960266 890.446045,647.172607 
	C865.106079,687.918274 840.050720,728.841003 814.708252,769.585083 
	C796.110596,799.485413 777.171814,829.173401 758.531311,859.047363 
	C744.918945,880.863098 731.583740,902.851624 718.042175,924.711792 
	C713.544495,931.972351 706.641846,935.882629 698.304688,935.907349 
	C639.491089,936.081543 580.676758,936.015198 521.862671,935.976440 
	C515.994568,935.972595 511.240540,933.599304 508.645813,928.114990 
	C506.125763,922.788452 505.919342,917.506226 509.230621,912.197205 
	C529.943420,878.988159 550.550110,845.713013 571.221497,812.478149 
	C576.931702,803.297485 582.742432,794.179321 588.757202,784.760864 
z"/>
<path fill="#FFFFFF" opacity="1.000000" stroke="none" 
	d="
M2379.984375,498.370667 
	C2379.998291,508.330261 2379.998291,517.820923 2379.998291,528.000000 
	C2378.322021,528.000000 2376.740234,528.000000 2375.158203,528.000000 
	C2303.346924,528.000000 2231.535889,528.000183 2159.724609,527.999390 
	C2157.382568,527.999390 2155.027100,527.827576 2152.700928,528.017212 
	C2147.343506,528.453979 2145.172119,526.552856 2146.060303,521.105774 
	C2148.626465,505.369324 2152.396973,489.999939 2158.853516,475.269135 
	C2164.374023,462.673706 2171.016846,450.861053 2178.732910,439.495850 
	C2186.100342,428.643921 2195.720215,420.578735 2206.666016,413.736572 
	C2228.085938,400.346832 2251.739990,396.361389 2276.368896,398.154999 
	C2297.431641,399.688904 2317.762451,404.286926 2335.594971,416.847107 
	C2347.621338,425.317627 2356.583252,436.273102 2363.966309,448.735443 
	C2370.477295,459.726135 2374.681152,471.633148 2377.511230,484.031891 
	C2378.554932,488.604034 2379.163574,493.275513 2379.984375,498.370667 
z"/>
</svg>